HIERARCHY
ROOT Hips
{
    OFFSET 0.0 0.0 0.0
    CHANNELS 6 Xposition Yposition Zposition Zrotation Xrotation Yrotation
    JOINT LeftHipJoint
    {
        OFFSET 0.1 0.0 0.0
        CHANNELS 3 Zrotation Xrotation Yrotation
        JOINT LeftUpLeg
        {
            OFFSET 127.86253880355189 0.0 0.0
            CHANNELS 3 Zrotation Xrotation Yrotation
            JOINT LeftLeg
            {
                OFFSET 0.0 0.0 -436.05506183657974
                CHANNELS 3 Zrotation Xrotation Yrotation
                JOINT LeftFoot
                {
                    OFFSET 0.0 0.0 -392.66363825259145
                    CHANNELS 3 Zrotation Xrotation Yrotation
                    End Site
                    {
                        OFFSET 0.0 -0.1 0.0
                    }
                }
            }
        }
    }
    JOINT LowerBack
    {
        OFFSET 0.0 0.0 0.1
        CHANNELS 3 Zrotation Xrotation Yrotation
        JOINT Spine
        {
            OFFSET 0.0 0.0 219.84368618544397
            CHANNELS 3 Zrotation Xrotation Yrotation
            JOINT Spine1
            {
                OFFSET 0.0 0.0 250.74819915124854
                CHANNELS 3 Zrotation Xrotation Yrotation
                JOINT LeftShoulder
                {
                    OFFSET 0.1 0.0 0.0
                    CHANNELS 3 Zrotation Xrotation Yrotation
                    JOINT LeftArm
                    {
                        OFFSET 138.3986827987619 0.0 0.0
                        CHANNELS 3 Zrotation Xrotation Yrotation
                        JOINT LeftForeArm
                        {
                            OFFSET 273.15929302266477 0.0 0.0
                            CHANNELS 3 Zrotation Xrotation Yrotation
                            JOINT LeftHand
                            {
                                OFFSET 252.35181637901238 0.0 0.0
                                CHANNELS 3 Zrotation Xrotation Yrotation
                                End Site
                                {
                                    OFFSET 0.1 0.0 0.0
                                }
                            }
                        }
                    }
                }
                JOINT Neck
                {
                    OFFSET 0.0 0.0 0.1
                    CHANNELS 3 Zrotation Xrotation Yrotation
                    JOINT Neck1
                    {
                        OFFSET 0.0 0.0 101.54573832038163
                        CHANNELS 3 Zrotation Xrotation Yrotation
                        End Site
                        {
                            OFFSET 0.0 0.0 111.67687273602913
                        }
                    }
                }
                JOINT RightShoulder
                {
                    OFFSET -0.1 0.0 0.0
                    CHANNELS 3 Zrotation Xrotation Yrotation
                    JOINT RightArm
                    {
                        OFFSET -138.3986827987619 0.0 0.0
                        CHANNELS 3 Zrotation Xrotation Yrotation
                        JOINT RightForeArm
                        {
                            OFFSET -273.15929302266477 0.0 0.0
                            CHANNELS 3 Zrotation Xrotation Yrotation
                            JOINT RightHand
                            {
                                OFFSET -252.35181637901238 0.0 0.0
                                CHANNELS 3 Zrotation Xrotation Yrotation
                                End Site
                                {
                                    OFFSET -0.1 0.0 0.0
                                }
                            }
                        }
                    }
                }
            }
        }
    }
    JOINT RightHipJoint
    {
        OFFSET -0.1 0.0 0.0
        CHANNELS 3 Zrotation Xrotation Yrotation
        JOINT RightUpLeg
        {
            OFFSET -127.86253880355189 0.0 0.0
            CHANNELS 3 Zrotation Xrotation Yrotation
            JOINT RightLeg
            {
                OFFSET 0.0 0.0 -436.05506183657974
                CHANNELS 3 Zrotation Xrotation Yrotation
                JOINT RightFoot
                {
                    OFFSET 0.0 0.0 -392.66363825259145
                    CHANNELS 3 Zrotation Xrotation Yrotation
                    End Site
                    {
                        OFFSET 0.0 -0.1 0.0
                    }
                }
            }
        }
    }
}
MOTION
Frames: 7
Frame Time: 0.03333333333333333
0.0 0.0 825.5611310487417 27.901916111311465 6.33657349941982 2.227156786104048 0.0 0.0 1.987846675914698e-16 -0.2033365117520598 -18.699127421253497 1.5387648869166342 1.0069041944024648 24.801106990911084 -0.7435088379253533 0.0 0.0 -1.1927080055488188e-15 0.0 0.0 1.987846675914698e-16 0.09499223923054073 8.899607372281274 2.71330183858324 -1.161609557228221 7.910677436207636e-16 4.0560905610177956e-16 0.0 0.0 3.975693351829396e-16 -26.663344433524074 11.655410526363342 67.684006104667 -121.84777089305997 1.313194270103294e-14 7.25475573099338e-15 0.0 0.0 6.3611093629270335e-15 0.0 0.0 3.975693351829396e-16 -6.826113368501422 -13.489233571569127 -6.242581620764339 0.0 0.0 3.975693351829396e-16 17.211656895788987 8.98140835709009 -72.27298927296779 118.90107795440909 5.4781282444212404e-15 3.2332372731972877e-15 0.0 0.0 0.0 0.0 0.0 1.987846675914698e-16 -0.16109590508029364 -14.704820627707903 -2.066834461364405 -0.6593324161169265 24.620797765462086 1.030328437724672 0.0 0.0 7.951386703658792e-16
0.0 0.0 825.5611310487417 28.035557904183552 6.188293965659499 2.2506277239800836 0.0 0.0 1.987846675914698e-16 -0.19701826057330635 -18.609215723569502 1.6180509464965964 1.0345721389148335 24.773799934457337 -0.842881736700436 0.0 0.0 3.975693351829396e-16 0.0 0.0 1.987846675914698e-16 0.09245344749084698 8.889113527499457 2.8279429863807306 -1.0943581815811199 -2.7562811179903426e-15 -2.8094357572001474e-15 0.0 0.0 -1.5902773407317582e-15 -26.906749820221627 11.65350812085123 67.64472312432623 -121.87987239696089 -1.3129909849614978e-14 -7.258434208600185e-15 0.0 0.0 6.3611093629270335e-15 0.0 0.0 -1.5902773407317582e-15 -7.145878271413969 -13.446542013172863 -6.210041467718814 0.0 0.0 -1.5902773407317582e-15 17.024521993618265 8.737466759102215 -72.03517450758457 119.06601804380486 -1.6448329215290295e-14 -9.676046556806631e-15 0.0 0.0 6.3611093629270335e-15 0.0 0.0 1.987846675914698e-16 -0.15424003086292945 -14.448863506240546 -2.012165360901747 -0.638583339808593 24.507454615896105 0.9660242335499033 0.0 0.0 7.951386703658792e-16
0.0 0.0 825.5611310487417 28.196432683376482 6.011191741122476 2.2289859350288714 0.0 0.0 3.975693351829396e-16 -0.18064768433140335 -18.493681462118953 1.8252889725129924 1.1090304158612256 24.78708033276416 -1.0124549080110112 0.0 0.0 0.0 0.0 0.0 3.975693351829396e-16 0.08518360344103074 8.862071316572537 2.96672017545499 -0.9964710252118835 -8.020229268135158e-16 7.881942876524283e-16 2.758691436281349e-33 -3.975693351829396e-16 7.951386703658792e-16 -27.07288884129336 11.711465286278827 67.66121574644711 -121.98233842935272 6.953845284761442e-15 -3.855980584329088e-15 0.0 0.0 0.0 2.758691436281349e-33 -3.975693351829396e-16 7.951386703658792e-16 -7.542216748971054 -13.408368923749983 -6.1985431146289915 2.758691436281349e-33 -3.975693351829396e-16 7.951386703658792e-16 16.978569597612776 8.607644947877509 -71.80222981227303 119.36865367193123 2.2804177606745665e-15 8.702133042595704e-15 0.0 0.0 3.1805546814635168e-15 0.0 0.0 3.975693351829396e-16 -0.14024751268346908 -14.201789425527906 -1.8069314580655467 -0.5677328471088846 24.56044745342709 0.780368045764308 3.1805546814635168e-15 0.0 0.0
0.0 0.0 825.5611310487417 28.37636847721222 5.86696187098066 2.242668570765595 0.0 0.0 -3.975693351829396e-16 -0.18039957328802517 -18.360694678735413 2.0083423119617976 1.1918721850270626 24.724265649891514 -1.2498642250160077 0.0 0.0 7.951386703658792e-16 0.0 0.0 -3.975693351829396e-16 0.0855152258678428 8.83793081934706 3.0497036946800744 -0.9105591074196608 2.3821815995169533e-15 4.165114034472727e-16 0.0 0.0 -3.975693351829396e-16 -27.32503855689681 11.816199722426932 67.65497335643707 -122.17482440943374 1.201043154268986e-14 1.5167032444885243e-14 -6.3611093629270335e-15 0.0 0.0 0.0 0.0 -3.975693351829396e-16 -7.735105320611203 -13.432841441491659 -6.106383717396082 0.0 0.0 -3.975693351829396e-16 16.818814618321582 8.413428918788966 -71.56803360103727 119.78006777741116 1.4196657486673155e-14 8.794758903328635e-16 0.0 0.0 3.1805546814635168e-15 0.0 0.0 -3.975693351829396e-16 -0.1398875461165905 -14.071102464877857 -1.7101349499412997 -0.5245666884747049 24.670855360929313 0.7580844670650945 -1.3793457181406746e-33 1.987846675914698e-16 7.951386703658792e-16
0.0 0.0 825.5611310487417 28.548301816237803 5.781182833265967 2.291815004460665 0.0 -7.951386703658792e-16 0.0 -0.19232924342890795 -18.302916644570683 2.0981703259500084 1.2519190800728606 24.726544676509093 -1.34608971364177 0.0 0.0 7.951386703658792e-16 0.0 -7.951386703658792e-16 0.0 0.09135263177612225 8.82900218799993 3.10176851238911 -0.828319596415494 -7.80748967888177e-16 -1.9935423148751774e-15 0.0 0.0 3.975693351829396e-16 -27.705549482239572 11.941782094217018 67.61581237461237 -122.2550803006953 -1.0034538226146824e-14 -1.7309839474235356e-15 0.0 0.0 0.0 0.0 0.0 3.975693351829396e-16 -7.949141432536755 -13.336764837906946 -6.055584473189223 0.0 0.0 3.975693351829396e-16 16.8436902341651 8.209757879552491 -71.3969240536527 120.19256767890415 -1.4199731384022291e-14 -8.283660164457936e-16 0.0 0.0 -3.1805546814635168e-15 0.0 -7.951386703658792e-16 0.0 -0.14871686703446124 -13.997316135799242 -1.657865848392522 -0.4857332671008397 24.813165397734746 0.6906657796949821 0.0 0.0 0.0
0.0 0.0 825.5611310487417 28.669591020068584 5.673209280470233 2.298264865054485 0.0 0.0 1.987846675914698e-16 -0.19840038456594755 -18.26537613898756 2.2897075434957177 1.3597013340731927 24.882676841628268 -1.5656169299549594 0.0 0.0 -3.975693351829396e-16 0.0 0.0 1.987846675914698e-16 0.09465809019392067 8.848094227654794 3.2097488551096025 -0.7595846098812786 -1.1795052065806428e-15 -1.995708962021896e-15 0.0 0.0 -7.951386703658792e-16 -27.891258826734386 11.944707269393003 67.48036159055434 -122.28453047574261 -2.17454913429774e-14 -9.805843199469968e-15 3.531125038440127e-31 -6.361109362927033e-15 6.361109362927033e-15 0.0 0.0 -7.951386703658792e-16 -8.115830575885209 -13.333491020818492 -6.068938085852156 0.0 0.0 -7.951386703658792e-16 16.849356606744383 7.962855596939691 -71.1906954628491 120.60854318668137 -1.972833985862284e-14 -3.928069461434344e-15 0.0 0.0 3.1805546814635168e-15 0.0 0.0 1.987846675914698e-16 -0.15229058949960997 -13.865816331568425 -1.5695194406754411 -0.4388016428580635 24.976342722639913 0.6017613052228709 3.1805546814635168e-15 -3.1805546814635168e-15 1.5902773407317584e-15
0.0 0.0 825.5611310487417 28.81823216652786 5.57886470801529 2.291054515983695 -3.4483642953516864e-34 -1.987846675914698e-16 -1.987846675914698e-16 -0.21320789156777356 -18.244558713169052 2.4589148905237463 1.4752678517659805 25.09765097884447 -1.6842429852741203 0.0 0.0 3.975693351829396e-16 -3.4483642953516864e-34 -1.987846675914698e-16 -1.987846675914698e-16 0.10217859129338673 8.880229005834655 3.2696379724678373 -0.6973885615104009 3.8304474657265993e-16 2.3877913737179502e-15 0.0 -1.987846675914698e-15 0.0 -28.04947311904508 11.994773862305125 67.36377913982545 -122.26066173731502 1.4498355579932528e-14 6.534209020403819e-15 0.0 0.0 6.3611093629270335e-15 0.0 -1.987846675914698e-15 0.0 -8.29901957121572 -13.345661871997075 -5.9706557234043185 0.0 -1.987846675914698e-15 0.0 17.0064333205464 7.794035561426845 -71.08510157297766 120.8397221375042 1.4952343522601966e-14 -1.3456022683292521e-14 0.0 0.0 3.1805546814635168e-15 -3.4483642953516864e-34 -1.987846675914698e-16 -1.987846675914698e-16 -0.16280240137485052 -13.791885816497299 -1.45858462249098 -0.36976578375720504 25.25015813562127 0.46450855994535895 0.0 0.0 -7.951386703658792e-16
